<svg width="16" height="16" viewBox="0 0 16 16" fill="none" xmlns="http://www.w3.org/2000/svg">
<path d="M2.38672 14.1307H11.8927L11.4387 12.6607L12.5247 13.5927L13.52 14.4847L15.3334 16V1.65C15.288 0.758 14.52 0 13.568 0L2.39005 0.002C1.43872 0.002 0.666718 0.761333 0.666718 1.65333V12.48C0.666718 13.4207 1.43738 14.1307 2.38672 14.1307ZM9.41872 3.78867L9.39672 3.79667L9.40472 3.78867H9.41872ZM4.33138 4.63467C5.55338 3.74533 6.68605 3.788 6.68605 3.788L6.77738 3.878C5.28205 4.23467 4.60405 4.90267 4.60405 4.90267C4.60405 4.90267 4.78538 4.814 5.10205 4.67867C7.11605 3.88667 9.31538 3.944 11.3514 4.94667C11.3514 4.94667 10.672 4.322 9.26872 3.922L9.39272 3.8C9.58672 3.80067 10.6134 3.83667 11.712 4.64C11.712 4.64 12.9414 6.74 12.9414 9.32C12.9007 9.27067 12.1787 10.4307 10.3207 10.4707C10.3207 10.4707 10.0061 10.1147 9.78205 9.804C10.8687 9.492 11.2754 8.868 11.2754 8.868C10.9187 9.09267 10.5934 9.226 10.3294 9.35933C9.92338 9.538 9.51672 9.626 9.11072 9.716C7.18805 10.028 6.10872 9.506 5.08872 9.092L4.74005 8.91467C4.74005 8.91467 5.14605 9.53867 6.18938 9.85067C5.91538 10.1633 5.64405 10.5187 5.64405 10.5187C3.78672 10.4747 3.10938 9.31467 3.10938 9.31467C3.10938 6.73067 4.33138 4.63467 4.33138 4.63467Z" fill="white"/>
</svg>
