<svg width="16" height="12" viewBox="0 0 16 12" fill="none" xmlns="http://www.w3.org/2000/svg">
<path d="M15.1831 2.25104C15.0103 1.60843 14.5036 1.10187 13.8611 0.928833C12.6873 0.607666 7.992 0.607666 7.992 0.607666C7.992 0.607666 3.29691 0.607666 2.12311 0.916656C1.49295 1.08951 0.973938 1.60852 0.801086 2.25104C0.492188 3.42474 0.492188 5.85885 0.492188 5.85885C0.492188 5.85885 0.492188 8.30523 0.801086 9.46667C0.974121 10.1092 1.48059 10.6157 2.1232 10.7888C3.30926 11.11 7.99219 11.11 7.99219 11.11C7.99219 11.11 12.6873 11.11 13.8611 10.8011C14.5037 10.6281 15.0103 10.1215 15.1833 9.47903C15.4921 8.30523 15.4921 5.87121 15.4921 5.87121C15.4921 5.87121 15.5045 3.42474 15.1831 2.25104ZM6.49713 8.10757V3.61014L10.4015 5.85885L6.49713 8.10757Z" fill="white"/>
</svg>
